<svg xmlns="http://www.w3.org/2000/svg" viewBox="0 0 1200 675" role="img" aria-labelledby="title desc">
  <title id="title">Landscaped backyard with stone path</title>
  <desc id="desc">A bright landscaped garden scene with a curved stone walkway, layered planting beds, trees, and a patio.</desc>
  <defs>
    <linearGradient id="sky" x1="0" x2="0" y1="0" y2="1">
      <stop offset="0" stop-color="#bde7ff"/>
      <stop offset="1" stop-color="#eef9f1"/>
    </linearGradient>
    <linearGradient id="lawn" x1="0" x2="0" y1="0" y2="1">
      <stop offset="0" stop-color="#7ccf73"/>
      <stop offset="1" stop-color="#2f8f46"/>
    </linearGradient>
  </defs>
  <rect width="1200" height="675" fill="url(#sky)"/>
  <circle cx="970" cy="110" r="62" fill="#fde68a"/>
  <path d="M0 288c180-46 332-40 476 4 160 50 310 32 470-20 120-38 202-46 254-20v423H0Z" fill="#5fb35f"/>
  <path d="M0 365c170-40 330-28 482 28 164 60 342 42 550-48 70-30 125-41 168-28v358H0Z" fill="url(#lawn)"/>
  <path d="M603 675c-42-112-16-219 82-319 33-34 78-66 135-97-165 52-286 131-360 238-44 64-70 123-76 178Z" fill="#d6d3c2"/>
  <path d="M638 675c-32-91-12-180 67-267 28-31 65-59 112-84-122 45-213 111-272 199-36 54-58 105-63 152Z" fill="#f2efe3"/>
  <g fill="#8f8a7a" opacity=".55">
    <ellipse cx="569" cy="600" rx="45" ry="18"/>
    <ellipse cx="604" cy="520" rx="39" ry="15"/>
    <ellipse cx="663" cy="446" rx="33" ry="13"/>
    <ellipse cx="735" cy="385" rx="28" ry="11"/>
  </g>
  <g>
    <rect x="70" y="355" width="270" height="98" rx="18" fill="#8b5e34"/>
    <rect x="92" y="334" width="226" height="56" rx="10" fill="#b77942"/>
    <path d="M92 388h226" stroke="#6b4423" stroke-width="8"/>
  </g>
  <g>
    <circle cx="160" cy="260" r="76" fill="#2f855a"/>
    <circle cx="230" cy="235" r="88" fill="#38a169"/>
    <circle cx="300" cy="275" r="66" fill="#276749"/>
    <rect x="220" y="292" width="28" height="122" fill="#7c4a28"/>
  </g>
  <g>
    <circle cx="940" cy="265" r="96" fill="#2f855a"/>
    <circle cx="1018" cy="232" r="78" fill="#48bb78"/>
    <circle cx="1085" cy="285" r="66" fill="#276749"/>
    <rect x="988" y="310" width="30" height="132" fill="#7c4a28"/>
  </g>
  <g>
    <ellipse cx="180" cy="512" rx="150" ry="42" fill="#174f2a"/>
    <ellipse cx="166" cy="493" rx="30" ry="50" fill="#84cc16"/>
    <ellipse cx="226" cy="488" rx="34" ry="57" fill="#65a30d"/>
    <ellipse cx="286" cy="502" rx="28" ry="45" fill="#4d7c0f"/>
    <circle cx="114" cy="476" r="16" fill="#f9a8d4"/>
    <circle cx="263" cy="464" r="14" fill="#fef08a"/>
    <circle cx="316" cy="486" r="12" fill="#fca5a5"/>
  </g>
  <g>
    <ellipse cx="900" cy="520" rx="180" ry="48" fill="#174f2a"/>
    <ellipse cx="820" cy="490" rx="32" ry="58" fill="#65a30d"/>
    <ellipse cx="885" cy="476" rx="38" ry="70" fill="#84cc16"/>
    <ellipse cx="966" cy="493" rx="34" ry="56" fill="#4d7c0f"/>
    <ellipse cx="1038" cy="506" rx="26" ry="44" fill="#15803d"/>
    <circle cx="782" cy="490" r="15" fill="#fef08a"/>
    <circle cx="934" cy="455" r="14" fill="#f9a8d4"/>
    <circle cx="1012" cy="480" r="13" fill="#fca5a5"/>
  </g>
</svg>
