<svg xmlns="http://www.w3.org/2000/svg" viewBox="0 0 900 900" role="img" aria-labelledby="title desc">
  <title id="title">Landscaper portrait illustration</title>
  <desc id="desc">A friendly landscaper standing in front of planting beds with garden tools.</desc>
  <rect width="900" height="900" fill="#e6f4ea"/>
  <circle cx="700" cy="170" r="78" fill="#fde68a"/>
  <path d="M0 590c120-90 260-120 420-90s320 24 480-58v458H0Z" fill="#5bb567"/>
  <path d="M0 695c190-72 368-76 535-12 136 52 257 50 365-6v223H0Z" fill="#2f8f46"/>
  <g transform="translate(318 190)">
    <path d="M132 405 88 655h220l-44-250Z" fill="#14532d"/>
    <path d="M102 222h190c24 0 44 20 44 44v154H58V266c0-24 20-44 44-44Z" fill="#16a34a"/>
    <path d="M58 318h278v62H58Z" fill="#facc15" opacity=".85"/>
    <circle cx="197" cy="126" r="82" fill="#b77942"/>
    <path d="M112 110c12-62 52-93 118-93 58 18 87 49 88 93-84-17-153-17-206 0Z" fill="#166534"/>
    <path d="M118 126c20 42 46 65 79 69 38-3 66-26 85-69-50 12-105 12-164 0Z" fill="#d6a26f"/>
    <path d="M132 148c38 36 81 36 129 0" stroke="#6b4423" stroke-width="8" stroke-linecap="round" fill="none"/>
    <path d="M58 300 0 462" stroke="#14532d" stroke-width="38" stroke-linecap="round"/>
    <path d="M336 300 394 462" stroke="#14532d" stroke-width="38" stroke-linecap="round"/>
    <path d="M-2 465h84" stroke="#7c4a28" stroke-width="24" stroke-linecap="round"/>
    <path d="M312 465h84" stroke="#7c4a28" stroke-width="24" stroke-linecap="round"/>
  </g>
  <g stroke="#7c4a28" stroke-width="18" stroke-linecap="round">
    <path d="M150 340v410"/>
    <path d="M110 376h80"/>
    <path d="M120 750h60"/>
    <path d="M690 390v360"/>
    <path d="M648 420h84"/>
    <path d="m660 750 60-52"/>
  </g>
</svg>
